<?xml version="1.0" standalone="no"?>
<!DOCTYPE svg PUBLIC "-//W3C//DTD SVG 20010904//EN"
 "http://www.w3.org/TR/2001/REC-SVG-20010904/DTD/svg10.dtd">
<svg version="1.0" xmlns="http://www.w3.org/2000/svg"
 width="305.000000pt" height="305.000000pt" viewBox="0 0 305.000000 305.000000"
 preserveAspectRatio="xMidYMid meet">
<metadata>
Created by potrace 1.11, written by Peter Selinger 2001-2013
</metadata>
<g transform="translate(0.000000,305.000000) scale(0.100000,-0.100000)"
fill="#000000" stroke="none">
<path d="M2080 2165 c-508 -60 -874 -128 -1150 -213 -91 -27 -129 -34 -182
-33 l-68 2 0 -35 c0 -28 6 -40 31 -58 17 -13 47 -54 65 -91 42 -83 67 -96 124
-67 36 18 70 26 70 16 0 -2 9 -48 20 -101 30 -144 23 -349 -13 -394 -10 -12
-9 -14 3 -9 8 3 45 13 82 23 65 17 66 18 78 61 7 24 18 44 25 44 7 0 22 37 35
86 38 144 13 274 -61 317 -19 10 -29 23 -27 34 4 21 65 41 124 42 l41 1 7 -52
c12 -87 84 -245 140 -306 11 -13 48 -39 82 -58 l60 -34 310 15 c170 8 315 15
322 15 7 0 12 -13 12 -30 0 -19 -5 -30 -14 -30 -21 0 -29 -29 -27 -100 2 -42
-2 -71 -11 -81 -8 -10 -114 -40 -288 -82 -410 -99 -525 -117 -758 -117 l-130
0 -6 33 -6 33 -111 12 c-60 6 -113 13 -117 16 -4 3 -21 45 -37 95 -22 71 -33
91 -47 91 -10 0 -18 7 -18 17 0 34 -44 106 -107 175 -36 39 -75 94 -88 122
-21 47 -21 54 -8 91 7 21 11 52 8 67 -6 27 -20 37 -27 20 -1 -5 -22 -23 -46
-40 -42 -30 -44 -30 -85 -16 -23 8 -81 37 -128 64 -48 28 -96 50 -108 50 -20
0 -18 -5 22 -57 83 -110 208 -309 231 -368 4 -11 52 -102 108 -204 91 -166
100 -187 95 -223 -4 -32 0 -48 22 -83 15 -23 33 -60 40 -81 8 -24 25 -47 44
-60 l31 -20 90 23 c112 29 265 43 560 49 275 5 361 20 686 119 221 67 276 76
286 50 5 -11 11 -12 25 -4 11 5 28 8 37 5 10 -4 27 1 38 9 29 22 64 19 64 -5
0 -12 -7 -20 -16 -20 -12 0 -15 -6 -10 -22 3 -13 6 -26 6 -30 0 -18 44 -6 69
20 33 32 54 92 85 239 20 95 25 108 44 111 19 3 22 -2 23 -30 2 -29 2 -30 6
-6 2 15 12 28 21 30 12 2 19 24 28 89 14 96 33 155 89 277 l38 82 91 51 c74
41 96 59 119 96 34 56 30 97 -10 108 -30 7 -52 31 -53 57 0 10 -12 19 -32 23
-70 15 -197 59 -297 102 -90 39 -312 105 -345 102 -6 0 -99 -11 -206 -24z
m160 -73 c0 -5 -9 -91 -20 -193 -12 -101 -18 -196 -14 -212 3 -15 3 -54 -1
-86 l-7 -59 -96 1 c-127 1 -218 -10 -252 -29 -24 -15 -39 -15 -146 -3 l-119
14 -6 95 c-8 132 -15 142 -100 164 -127 33 -139 37 -139 49 0 14 167 67 415
131 147 39 312 96 364 126 20 12 121 13 121 2z"/>
<path d="M2612 1060 c-16 -26 -15 -40 3 -40 10 0 15 10 15 30 0 35 -1 36 -18
10z"/>
</g>
</svg>
